<svg viewBox="0 0 90 26"  xmlns="http://www.w3.org/2000/svg">
<path d="M12.3221 12.487C13.1477 12.7485 13.7944 13.1888 14.2622 13.808C14.7301 14.4134 14.964 15.1634 14.964 16.0578C14.964 17.3237 14.4686 18.3006 13.4779 18.9886C12.501 19.6629 11.0699 20 9.1848 20H1.71312V5.552H8.772C10.5333 5.552 11.8818 5.88912 12.8174 6.56336C13.7669 7.2376 14.2416 8.15264 14.2416 9.30848C14.2416 10.0102 14.0696 10.6363 13.7256 11.1867C13.3954 11.7371 12.9275 12.1706 12.3221 12.487ZM5.03616 8.07008V11.4757H8.3592C9.1848 11.4757 9.81088 11.3312 10.2374 11.0422C10.664 10.7533 10.8773 10.3267 10.8773 9.76256C10.8773 9.1984 10.664 8.77872 10.2374 8.50352C9.81088 8.21456 9.1848 8.07008 8.3592 8.07008H5.03616ZM8.93712 17.4819C9.81776 17.4819 10.4782 17.3374 10.9186 17.0485C11.3726 16.7595 11.5997 16.3123 11.5997 15.7069C11.5997 14.5098 10.7122 13.9112 8.93712 13.9112H5.03616V17.4819H8.93712ZM20.7153 8.73056C22.4353 8.73056 23.7563 9.14336 24.6782 9.96896C25.6001 10.7808 26.0611 12.0123 26.0611 13.6635V20H23.0476V18.6171C22.4422 19.6491 21.3139 20.1651 19.6627 20.1651C18.8095 20.1651 18.0665 20.0206 17.4335 19.7317C16.8143 19.4427 16.3396 19.0437 16.0094 18.5346C15.6791 18.0254 15.514 17.4475 15.514 16.8008C15.514 15.7688 15.8993 14.957 16.6699 14.3653C17.4542 13.7736 18.6582 13.4778 20.2819 13.4778H22.8412C22.8412 12.776 22.6279 12.2394 22.2014 11.8678C21.7748 11.4826 21.135 11.2899 20.2819 11.2899C19.6902 11.2899 19.1054 11.3862 18.5275 11.5789C17.9633 11.7578 17.4817 12.0054 17.0827 12.3219L15.9268 10.0722C16.5323 9.6456 17.2547 9.31536 18.094 9.08144C18.9471 8.84752 19.8209 8.73056 20.7153 8.73056ZM20.4676 17.9979C21.018 17.9979 21.5065 17.8741 21.9331 17.6264C22.3596 17.365 22.6623 16.9866 22.8412 16.4912V15.356H20.6327C19.3118 15.356 18.6513 15.7894 18.6513 16.6563C18.6513 17.0691 18.8095 17.3994 19.126 17.647C19.4563 17.881 19.9035 17.9979 20.4676 17.9979ZM34.2797 8.73056C35.6557 8.73056 36.7633 9.14336 37.6027 9.96896C38.4558 10.7946 38.8824 12.0192 38.8824 13.6429V20H35.6625V14.1382C35.6625 13.2576 35.4699 12.604 35.0846 12.1774C34.6993 11.7371 34.1421 11.517 33.4128 11.517C32.6009 11.517 31.9542 11.7715 31.4726 12.2806C30.991 12.776 30.7502 13.519 30.7502 14.5098V20H27.5304V8.89568H30.6057V10.196C31.0323 9.72816 31.5621 9.3704 32.195 9.12272C32.828 8.86128 33.5229 8.73056 34.2797 8.73056ZM52.0797 4.68512V20H49.0044V18.7203C48.2063 19.6835 47.0504 20.1651 45.5368 20.1651C44.4911 20.1651 43.5416 19.9312 42.6885 19.4634C41.8492 18.9955 41.1887 18.3282 40.7071 17.4613C40.2255 16.5944 39.9847 15.5899 39.9847 14.4478C39.9847 13.3058 40.2255 12.3013 40.7071 11.4344C41.1887 10.5675 41.8492 9.90016 42.6885 9.43232C43.5416 8.96448 44.4911 8.73056 45.5368 8.73056C46.9541 8.73056 48.0618 9.17776 48.8599 10.0722V4.68512H52.0797ZM46.0941 17.5232C46.906 17.5232 47.5802 17.248 48.1168 16.6976C48.6535 16.1334 48.9218 15.3835 48.9218 14.4478C48.9218 13.5122 48.6535 12.7691 48.1168 12.2187C47.5802 11.6546 46.906 11.3725 46.0941 11.3725C45.2685 11.3725 44.5874 11.6546 44.0508 12.2187C43.5141 12.7691 43.2458 13.5122 43.2458 14.4478C43.2458 15.3835 43.5141 16.1334 44.0508 16.6976C44.5874 17.248 45.2685 17.5232 46.0941 17.5232Z" fill="white"/>
<path d="M67.7121 5.552V20H64.3684V14.0763H57.8049V20H54.4612V5.552H57.8049V11.2486H64.3684V5.552H67.7121ZM85.5165 21.548C85.0487 22.1259 84.4777 22.5662 83.8034 22.869C83.1429 23.1717 82.4137 23.323 81.6156 23.323C80.5423 23.323 79.5722 23.0891 78.7053 22.6213C77.8385 22.1672 76.8477 21.3554 75.7332 20.1858C74.426 20.0206 73.2564 19.601 72.2244 18.9267C71.2061 18.2525 70.4081 17.3856 69.8301 16.3261C69.266 15.2528 68.9839 14.0694 68.9839 12.776C68.9839 11.3587 69.321 10.0859 69.9953 8.9576C70.6833 7.81552 71.6258 6.92112 72.8229 6.2744C74.0338 5.62768 75.3892 5.30432 76.889 5.30432C78.3889 5.30432 79.7373 5.62768 80.9345 6.2744C82.1316 6.92112 83.0741 7.81552 83.7621 8.9576C84.4501 10.0859 84.7941 11.3587 84.7941 12.776C84.7941 14.4547 84.3194 15.927 83.37 17.193C82.4343 18.4589 81.189 19.3395 79.6341 19.8349C79.9781 20.1926 80.3084 20.4472 80.6249 20.5986C80.9551 20.7637 81.306 20.8462 81.6775 20.8462C82.5719 20.8462 83.3562 20.4885 84.0305 19.773L85.5165 21.548ZM72.3689 12.776C72.3689 13.6704 72.5615 14.4685 72.9468 15.1702C73.3458 15.872 73.8893 16.4224 74.5773 16.8214C75.2653 17.2067 76.0359 17.3994 76.889 17.3994C77.7421 17.3994 78.5127 17.2067 79.2007 16.8214C79.8887 16.4224 80.4253 15.872 80.8106 15.1702C81.2097 14.4685 81.4092 13.6704 81.4092 12.776C81.4092 11.8816 81.2097 11.0835 80.8106 10.3818C80.4253 9.68 79.8887 9.13648 79.2007 8.7512C78.5127 8.35216 77.7421 8.15264 76.889 8.15264C76.0359 8.15264 75.2653 8.35216 74.5773 8.7512C73.8893 9.13648 73.3458 9.68 72.9468 10.3818C72.5615 11.0835 72.3689 11.8816 72.3689 12.776ZM87.2755 20.1651C86.7113 20.1651 86.2366 19.9725 85.8513 19.5872C85.466 19.2019 85.2734 18.7203 85.2734 18.1424C85.2734 17.5507 85.466 17.076 85.8513 16.7182C86.2366 16.3467 86.7113 16.161 87.2755 16.161C87.8396 16.161 88.3143 16.3467 88.6996 16.7182C89.0849 17.076 89.2775 17.5507 89.2775 18.1424C89.2775 18.7203 89.0849 19.2019 88.6996 19.5872C88.3143 19.9725 87.8396 20.1651 87.2755 20.1651Z" fill="#46C674"/>
</svg>
