<svg viewBox="0 0 90 92"  xmlns="http://www.w3.org/2000/svg">
<path d="M25.0312 0C23.3744 0 22.0312 1.3431 22.0312 3V14.5312C18.5525 15.7796 16.0312 19.1156 16.0312 23C16.0312 27.935 20.0963 32 25.0312 32C29.9662 32 34.0312 27.935 34.0312 23C34.0312 19.1198 31.5041 15.7828 28.0312 14.5312V3C28.0312 1.3431 26.688 0 25.0312 0ZM65.0312 0C63.3744 0 62.0312 1.3431 62.0312 3V14.5312C58.5525 15.7796 56.0312 19.1156 56.0312 23C56.0312 27.935 60.0963 32 65.0312 32C69.9662 32 74.0312 27.935 74.0312 23C74.0312 19.1198 71.5041 15.7828 68.0312 14.5312V3C68.0312 1.3431 66.688 0 65.0312 0ZM11.0312 6C4.9724 6 0 10.9725 0 17.0312V80.9688C0 87.0276 4.9725 92 11.0312 92H78.9688C85.0275 92 90 87.0276 90 80.9688V17.0312C90 10.9725 85.0274 6 78.9688 6H73C71.4151 5.978 69.9375 7.4149 69.9375 9C69.9375 10.5851 71.4151 12.0224 73 12H78.9688C81.8015 12 84 14.1983 84 17.0312V34H6V17.0312C6 14.1983 8.1984 12 11.0312 12H17C18.5849 12.022 20.0312 10.5851 20.0312 9C20.0312 7.4149 18.5849 5.9776 17 6H11.0312ZM33 6C31.3431 6 30 7.3431 30 9C30 10.6568 31.3431 12 33 12H57C58.6569 12 60 10.6568 60 9C60 7.3431 58.6569 6 57 6H33ZM25.0312 20C26.7236 20 28.0312 21.3076 28.0312 23C28.0312 24.6924 26.7236 26 25.0312 26C23.3389 26 22.0312 24.6924 22.0312 23C22.0312 21.3076 23.3389 20 25.0312 20ZM65.0312 20C66.7236 20 68.0312 21.3076 68.0312 23C68.0312 24.6924 66.7236 26 65.0312 26C63.3389 26 62.0312 24.6924 62.0312 23C62.0312 21.3076 63.3389 20 65.0312 20ZM6 40H84V80.9688C84 83.8017 81.8015 86 78.9688 86H11.0312C8.1983 86 6 83.8017 6 80.9688V40V40Z" />
</svg>
