<svg viewBox="0 0 22 22"  xmlns="http://www.w3.org/2000/svg">
<path d="M5.9 0.299805C2.7 0.299805 0 2.9998 0 6.1998C0 9.3998 2.7 11.9998 5.9 11.9998C9.1 11.9998 11.7 9.3998 11.7 6.1998C11.7 2.9998 9.1 0.299805 5.9 0.299805ZM5.9 11.0998C3.2 11.0998 1 8.8998 1 6.1998C1 3.4998 3.2 1.2998 5.9 1.2998C8.6 1.2998 10.8 3.4998 10.8 6.1998C10.8 8.8998 8.6 11.0998 5.9 11.0998Z" />
<path d="M16.0998 10C12.8998 10 10.2998 12.6 10.2998 15.8C10.2998 19 12.8998 21.6 16.0998 21.6C19.2998 21.6 21.9998 19 21.9998 15.8C21.9998 12.6 19.2998 10 16.0998 10ZM16.0998 20.8C13.3998 20.8 11.1998 18.6 11.1998 15.9C11.1998 13.2 13.3998 11 16.0998 11C18.7998 11 20.9998 13.2 20.9998 15.9C20.9998 18.6 18.7998 20.8 16.0998 20.8Z" />
<path d="M13.4 2.39961C16.2 2.39961 18.5 4.49961 18.9 7.19961L17.6 6.49961C17.4 6.39961 17.1 6.49961 17 6.69961C16.9 6.89961 17 7.19961 17.2 7.29961L19.2 8.39961C19.3 8.39961 19.3 8.49961 19.4 8.49961C19.5 8.49961 19.5 8.49961 19.6 8.39961C19.6 8.39961 19.7 8.39961 19.7 8.29961L21.1 6.49961C21.3 6.29961 21.2 5.99961 21 5.89961C20.8 5.69961 20.5 5.79961 20.4 5.99961L19.7 6.89961C19.2 3.89961 16.5 1.59961 13.4 1.59961C13.2 1.59961 13 1.79961 13 1.99961C13 2.19961 13.2 2.39961 13.4 2.39961Z" />
<path d="M9.10042 19.7998C6.30042 19.7998 4.00042 17.6998 3.60042 14.9998L4.90042 15.6998C5.10042 15.7998 5.40042 15.6998 5.50042 15.4998C5.60042 15.2998 5.50042 14.9998 5.30042 14.8998L3.30042 13.7998C3.30042 13.7998 3.20042 13.7998 3.10042 13.7998C3.10042 13.7998 3.10042 13.7998 3.00042 13.7998C2.90042 13.7998 2.90042 13.7998 2.80042 13.8998C2.80042 13.8998 2.70042 13.8998 2.70042 13.9998L1.30042 15.7998C1.10042 15.9998 1.20042 16.2998 1.40042 16.3998C1.50042 16.4998 1.60042 16.4998 1.70042 16.4998C1.80042 16.4998 2.00042 16.3998 2.10042 16.2998L2.80042 15.3998C3.30042 18.3998 6.00042 20.6998 9.10042 20.6998C9.30042 20.6998 9.50042 20.4998 9.50042 20.2998C9.50042 19.9998 9.30042 19.7998 9.10042 19.7998Z" />
<path d="M5.9 2.2998C3.7 2.2998 2 3.9998 2 6.1998C2 8.2998 3.7 10.0998 5.9 10.0998C8.1 10.0998 9.8 8.3998 9.8 6.1998C9.8 3.9998 8 2.2998 5.9 2.2998ZM5.9 9.1998C4.3 9.1998 2.9 7.8998 2.9 6.1998C2.9 4.5998 4.2 3.1998 5.9 3.1998C7.6 3.1998 8.9 4.4998 8.9 6.1998C8.9 7.7998 7.5 9.1998 5.9 9.1998Z" />
<path d="M16.1002 11.8999C14.0002 11.8999 12.2002 13.5999 12.2002 15.7999C12.2002 17.8999 13.9002 19.6999 16.1002 19.6999C18.3002 19.6999 20.0002 17.9999 20.0002 15.7999C20.0002 13.6999 18.3002 11.8999 16.1002 11.8999ZM16.1002 18.7999C14.4002 18.7999 13.1002 17.4999 13.1002 15.7999C13.1002 14.0999 14.4002 12.7999 16.1002 12.7999C17.8002 12.7999 19.1002 14.0999 19.1002 15.7999C19.1002 17.4999 17.8002 18.7999 16.1002 18.7999Z" />
</svg>
