<svg  viewBox="0 0 21 21" fill="none" xmlns="http://www.w3.org/2000/svg">
<path d="M10.5 6.27051C9.66341 6.27051 8.84558 6.51859 8.14996 6.98339C7.45434 7.44819 6.91217 8.10883 6.59201 8.88176C6.27185 9.65469 6.18808 10.5052 6.3513 11.3257C6.51452 12.1463 6.91738 12.9 7.50896 13.4916C8.10054 14.0831 8.85425 14.486 9.67479 14.6492C10.4953 14.8124 11.3458 14.7287 12.1188 14.4085C12.8917 14.0884 13.5523 13.5462 14.0171 12.8506C14.4819 12.1549 14.73 11.3371 14.73 10.5005C14.7291 9.37893 14.2831 8.30357 13.49 7.5105C12.697 6.71743 11.6216 6.27146 10.5 6.27051Z" />
<path d="M16.4014 0H4.5986C3.37936 0.00124422 2.21041 0.486138 1.34827 1.34827C0.486138 2.21041 0.00124422 3.37936 0 4.5986V16.4014C0.00124422 17.6206 0.486138 18.7896 1.34827 19.6517C2.21041 20.5139 3.37936 20.9988 4.5986 21H16.4014C17.6206 20.9988 18.7896 20.5139 19.6517 19.6517C20.5139 18.7896 20.9988 17.6206 21 16.4014V4.5986C20.9988 3.37936 20.5139 2.21041 19.6517 1.34827C18.7896 0.486138 17.6206 0.00124422 16.4014 0V0ZM16.417 5.5C16.2192 5.5 16.0259 5.44135 15.8614 5.33147C15.697 5.22159 15.5688 5.06541 15.4931 4.88268C15.4174 4.69996 15.3976 4.49889 15.4362 4.30491C15.4748 4.11093 15.57 3.93275 15.7099 3.79289C15.8497 3.65304 16.0279 3.5578 16.2219 3.51921C16.4159 3.48063 16.617 3.50043 16.7997 3.57612C16.9824 3.65181 17.1386 3.77998 17.2485 3.94443C17.3584 4.10888 17.417 4.30222 17.417 4.5C17.417 4.76522 17.3116 5.01957 17.1241 5.20711C16.9366 5.39464 16.6822 5.5 16.417 5.5ZM10.5 15.73C9.4656 15.73 8.45444 15.4233 7.59437 14.8486C6.7343 14.2739 6.06396 13.4571 5.66811 12.5014C5.27226 11.5458 5.16869 10.4942 5.37049 9.47968C5.57229 8.46516 6.0704 7.53326 6.80183 6.80183C7.53326 6.0704 8.46516 5.57229 9.47968 5.37049C10.4942 5.16869 11.5458 5.27226 12.5014 5.66811C13.4571 6.06396 14.2739 6.7343 14.8486 7.59437C15.4233 8.45444 15.73 9.4656 15.73 10.5C15.7287 11.8867 15.1773 13.2162 14.1967 14.1967C13.2162 15.1773 11.8867 15.7287 10.5 15.73V15.73Z"/>
</svg>
