<svg viewBox="0 0 5121 4477"  xmlns="http://www.w3.org/2000/svg">
<path d="M4945.03 0.650024H1022.7C925.884 0.650024 847.4 62.1482 847.4 138.01V498.73C847.4 574.592 925.884 636.09 1022.7 636.09H4945.03C5041.85 636.09 5120.33 574.592 5120.33 498.73V138.01C5120.33 62.1482 5041.85 0.650024 4945.03 0.650024Z" />
<path d="M611.06 0.650024H26.4601C12.0289 0.650024 0.330078 62.1482 0.330078 138.01V498.73C0.330078 574.592 12.0289 636.09 26.4601 636.09H611.06C625.491 636.09 637.19 574.592 637.19 498.73V138.01C637.19 62.1482 625.491 0.650024 611.06 0.650024Z" />
<path d="M4945.03 1280.63H1022.7C925.884 1280.63 847.4 1342.13 847.4 1417.99V1778.71C847.4 1854.57 925.884 1916.07 1022.7 1916.07H4945.03C5041.85 1916.07 5120.33 1854.57 5120.33 1778.71V1417.99C5120.33 1342.13 5041.85 1280.63 4945.03 1280.63Z" />
<path d="M611.06 1280.63H26.4601C12.0289 1280.63 0.330078 1342.13 0.330078 1417.99V1778.71C0.330078 1854.57 12.0289 1916.07 26.4601 1916.07H611.06C625.491 1916.07 637.19 1854.57 637.19 1778.71V1417.99C637.19 1342.13 625.491 1280.63 611.06 1280.63Z" />
<path d="M4945.03 2560.6H1022.7C925.884 2560.6 847.4 2622.1 847.4 2697.96V3058.68C847.4 3134.54 925.884 3196.04 1022.7 3196.04H4945.03C5041.85 3196.04 5120.33 3134.54 5120.33 3058.68V2697.96C5120.33 2622.1 5041.85 2560.6 4945.03 2560.6Z" />
<path d="M611.06 2560.6H26.4601C12.0289 2560.6 0.330078 2622.1 0.330078 2697.96V3058.68C0.330078 3134.54 12.0289 3196.04 26.4601 3196.04H611.06C625.491 3196.04 637.19 3134.54 637.19 3058.68V2697.96C637.19 2622.1 625.491 2560.6 611.06 2560.6Z" />
<path d="M4945.03 3840.57H1022.7C925.884 3840.57 847.4 3902.07 847.4 3977.93V4338.65C847.4 4414.51 925.884 4476.01 1022.7 4476.01H4945.03C5041.85 4476.01 5120.33 4414.51 5120.33 4338.65V3977.93C5120.33 3902.07 5041.85 3840.57 4945.03 3840.57Z" />
<path d="M611.06 3840.57H26.4601C12.0289 3840.57 0.330078 3902.07 0.330078 3977.93V4338.65C0.330078 4414.51 12.0289 4476.01 26.4601 4476.01H611.06C625.491 4476.01 637.19 4414.51 637.19 4338.65V3977.93C637.19 3902.07 625.491 3840.57 611.06 3840.57Z" />
</svg>
