<svg viewBox="0 0 88 72"  xmlns="http://www.w3.org/2000/svg">
<path d="M65.0003 72H85.0003C86.571 71.9998 88.0001 70.5707 88.0003 69V3C88.0001 1.42925 86.571 0.00016 85.0003 0H65.0003C63.4296 0.00016 62.0005 1.42925 62.0003 3V14C61.9783 15.5849 63.4152 17.0427 65.0003 17.0427C66.5854 17.0427 68.0227 15.5849 68.0003 14V6H82.0003V66H68.0003V58C68.0223 56.415 66.5854 54.9572 65.0003 54.9572C63.4152 54.9572 61.9779 56.415 62.0003 58V69C62.0103 70.638 63.5759 72.0057 65.0003 72Z" />
<path d="M9.04645e-06 36.0052C0.028009 36.7202 0.322309 37.5466 0.812509 38.0678L16.8125 55.0686C17.8967 56.0429 19.9757 56.4451 21.1875 55.3186C22.3811 54.2091 22.3456 52.0573 21.1565 50.9434L9.90651 39.0053H73.0001C74.6569 39.0053 76.0001 37.6621 76.0001 36.0052C76.0001 34.3483 74.6569 33.0052 73.0001 33.0052H9.90651L21.1565 21.067C22.1802 20.0415 22.3694 17.8141 21.1875 16.6919C20.0059 15.5698 17.8522 15.9282 16.8125 16.9419L0.812509 33.9427C0.265009 34.5245 -0.00179095 35.207 9.04645e-06 36.0052V36.0052Z" />
</svg>
