<svg viewBox="0 0 90 84"  xmlns="http://www.w3.org/2000/svg">
<path d="M60 0H30C13.457 0 0 13.469 0 30.028V37.955C0 51.024 8.358 62.355 20.422 66.406C18.899 69.036 16.824 73.136 13.842 79.541C13.324 80.652 13.554 81.965 14.417 82.836C14.978 83.399 15.729 83.698 16.493 83.698C16.903 83.698 17.318 83.612 17.708 83.432L51.485 67.981H60C76.543 67.981 90 54.512 90 37.953V30.026C90 13.469 76.542 0 60 0ZM84.152 37.954C84.152 51.286 73.317 62.134 59.999 62.134H50.847C50.427 62.134 50.012 62.225 49.631 62.4L22.666 74.735C24.461 71.169 26.095 68.153 26.863 67.151C27.6 66.706 28.132 65.937 28.249 65.021C28.447 63.471 27.392 62.04 25.855 61.769C14.262 59.739 5.847 49.722 5.847 37.955V30.028C5.847 16.696 16.682 5.848 30 5.848H60C73.318 5.848 84.153 16.696 84.153 30.028V37.954H84.152Z" />
<path d="M22.3322 41.125C25.9033 41.125 28.7982 38.2301 28.7982 34.659C28.7982 31.0879 25.9033 28.193 22.3322 28.193C18.7611 28.193 15.8662 31.0879 15.8662 34.659C15.8662 38.2301 18.7611 41.125 22.3322 41.125Z" />
<path d="M67.6681 41.125C71.2392 41.125 74.1341 38.2301 74.1341 34.659C74.1341 31.0879 71.2392 28.193 67.6681 28.193C64.0971 28.193 61.2021 31.0879 61.2021 34.659C61.2021 38.2301 64.0971 41.125 67.6681 41.125Z" />
<path d="M45.0002 41.125C48.5713 41.125 51.4662 38.2301 51.4662 34.659C51.4662 31.0879 48.5713 28.193 45.0002 28.193C41.4291 28.193 38.5342 31.0879 38.5342 34.659C38.5342 38.2301 41.4291 41.125 45.0002 41.125Z" />
</svg>
