<svg viewBox="0 0 90 90"  xmlns="http://www.w3.org/2000/svg">
<path d="M45 0.0529785C20.216 0.0529785 0.0529785 20.216 0.0529785 45C0.0529785 69.784 20.216 89.947 45 89.947C69.784 89.947 89.947 69.783 89.947 45C89.947 20.217 69.783 0.0529785 45 0.0529785ZM45 83.784C23.615 83.784 6.21598 66.385 6.21598 44.999C6.21598 23.614 23.615 6.21498 45 6.21498C66.386 6.21498 83.785 23.614 83.785 44.999C83.784 66.386 66.386 83.784 45 83.784Z" />
<path d="M45.842 47.554C53.532 47.554 59.789 41.297 59.789 33.607C59.789 25.914 53.532 19.656 45.842 19.656C38.151 19.656 31.895 25.915 31.895 33.607C31.894 41.297 38.151 47.554 45.842 47.554ZM45.842 25.817C50.135 25.817 53.627 29.311 53.627 33.606C53.627 37.899 50.135 41.391 45.842 41.391C41.549 41.391 38.057 37.898 38.057 33.606C38.057 29.312 41.549 25.817 45.842 25.817Z" />
<path d="M72.4611 59.37C69.6181 52.041 64.1521 48.064 56.2141 47.553C55.4801 47.506 54.7641 47.719 54.1791 48.154C51.7061 49.99 48.8231 50.961 45.8411 50.961C42.8621 50.961 39.9741 49.989 37.4891 48.151C36.9031 47.718 36.1761 47.505 35.4571 47.553C27.4771 48.071 21.9981 52.089 19.1721 59.497C18.5661 61.087 19.3621 62.867 20.9521 63.474C21.3131 63.612 21.6841 63.677 22.0501 63.677C23.2911 63.677 24.4611 62.922 24.9291 61.694C26.7741 56.858 29.8461 54.39 34.8171 53.797C38.1411 55.977 41.9281 57.123 45.8411 57.123C49.7581 57.123 53.5421 55.977 56.8571 53.797C61.7991 54.383 64.8621 56.822 66.7151 61.599C67.3301 63.186 69.1131 63.972 70.7021 63.357C72.2891 62.741 73.0761 60.957 72.4611 59.37Z" />
</svg>
